<svg width="16" height="14" viewBox="0 0 16 14" fill="none" xmlns="http://www.w3.org/2000/svg">
<path d="M5.00006 0C4.44778 0 4.00006 0.447715 4.00006 1C4.00006 1.55228 4.44778 2 5.00006 2H11.0001C11.5523 2 12.0001 1.55228 12.0001 1C12.0001 0.447715 11.5523 0 11.0001 0H5.00006Z" fill="#9CA3AF"/>
<path d="M2.00006 4C2.00006 3.44772 2.44778 3 3.00006 3H13.0001C13.5523 3 14.0001 3.44772 14.0001 4C14.0001 4.55228 13.5523 5 13.0001 5H3.00006C2.44778 5 2.00006 4.55228 2.00006 4Z" fill="#9CA3AF"/>
<path d="M6.10352e-05 8C6.10352e-05 6.89543 0.895492 6 2.00006 6H14.0001C15.1046 6 16.0001 6.89543 16.0001 8V12C16.0001 13.1046 15.1046 14 14.0001 14H2.00006C0.895492 14 6.10352e-05 13.1046 6.10352e-05 12V8Z" fill="#9CA3AF"/>
</svg>
