<svg width="172" height="37" viewBox="0 0 172 37" fill="none" xmlns="http://www.w3.org/2000/svg">
<path d="M84.4472 26.75L88.4367 4.97003H95.5846L100.771 19.952L103.53 4.97003L107.221 5.00303L103.165 26.75H95.5513L90.7639 12.329L88.1043 26.75H84.4472ZM116.035 24.935C115.348 26.585 113.907 27.41 111.713 27.41C110.583 27.41 109.663 27.025 108.954 26.255C108.355 25.573 108.056 24.891 108.056 24.209C108.056 22.427 108.466 19.798 109.286 16.322L110.516 9.92003L117.265 9.26003L115.237 19.688C114.86 21.316 114.672 22.416 114.672 22.988C114.672 24.242 115.126 24.891 116.035 24.935ZM111.115 5.33303C111.115 4.47503 111.469 3.81503 112.178 3.35303C112.91 2.89103 113.796 2.66003 114.838 2.66003C115.88 2.66003 116.711 2.89103 117.332 3.35303C117.974 3.81503 118.296 4.47503 118.296 5.33303C118.296 6.19103 117.941 6.84003 117.232 7.28003C116.545 7.72003 115.68 7.94003 114.639 7.94003C113.597 7.94003 112.744 7.72003 112.079 7.28003C111.436 6.84003 111.115 6.19103 111.115 5.33303ZM132.93 27.41C130.248 27.41 128.908 26.376 128.908 24.308C128.93 23.736 129.029 22.966 129.207 21.998L129.805 18.962C130.404 16.102 130.703 14.353 130.703 13.715C130.703 12.439 130.326 11.801 129.572 11.801C128.309 11.801 127.345 13.44 126.68 16.718L124.719 26.75L118.036 27.41L121.494 9.88703L126.946 9.26003L126.414 12.494C127.456 10.338 129.572 9.26003 132.764 9.26003C134.315 9.26003 135.413 9.59003 136.055 10.25C136.72 10.888 137.053 11.933 137.053 13.385C137.053 14.749 136.698 17.026 135.989 20.216C135.656 21.646 135.49 22.636 135.49 23.186C135.49 23.714 135.634 24.132 135.922 24.44C136.233 24.748 136.609 24.924 137.053 24.968C136.831 25.716 136.332 26.31 135.557 26.75C134.803 27.19 133.928 27.41 132.93 27.41ZM135.09 30.677C136.242 30.589 137.24 29.83 138.082 28.4C138.725 27.3 139.257 25.738 139.678 23.714L142.371 9.92003L149.053 9.26003L146.227 23.714C145.496 27.388 144.565 29.83 143.435 31.04C142.836 31.7 142.149 32.14 141.373 32.36C140.598 32.58 139.766 32.69 138.88 32.69C137.018 32.69 135.755 32.019 135.09 30.677ZM142.903 5.33303C142.903 4.47503 143.257 3.81503 143.966 3.35303C144.698 2.89103 145.584 2.66003 146.626 2.66003C147.668 2.66003 148.499 2.89103 149.12 3.35303C149.762 3.81503 150.084 4.47503 150.084 5.33303C150.084 6.19103 149.729 6.84003 149.02 7.28003C148.333 7.72003 147.468 7.94003 146.427 7.94003C145.385 7.94003 144.532 7.72003 143.867 7.28003C143.224 6.84003 142.903 6.19103 142.903 5.33303ZM151.692 25.76C151.183 25.188 150.806 24.451 150.562 23.549C150.34 22.647 150.229 21.459 150.229 19.985C150.229 18.511 150.484 17.103 150.994 15.761C151.504 14.419 152.224 13.264 153.155 12.296C155.061 10.272 157.588 9.26003 160.735 9.26003C161.866 9.26003 162.841 9.44703 163.661 9.82103L169.346 9.26003L166.886 22.13C166.819 22.394 166.786 22.768 166.786 23.252C166.786 23.736 166.93 24.132 167.218 24.44C167.528 24.748 167.905 24.924 168.348 24.968C168.127 25.716 167.606 26.31 166.786 26.75C165.988 27.19 165.135 27.41 164.226 27.41C163.317 27.41 162.553 27.234 161.932 26.882C161.334 26.552 160.946 26.101 160.768 25.529C160.414 26.079 159.86 26.53 159.106 26.882C158.353 27.234 157.466 27.41 156.446 27.41C155.449 27.41 154.54 27.278 153.72 27.014C152.9 26.75 152.224 26.332 151.692 25.76ZM158.707 12.362C158.463 12.758 158.231 13.297 158.009 13.979C157.787 14.639 157.488 15.871 157.111 17.675C156.757 19.457 156.579 20.986 156.579 22.262C156.579 23.538 156.679 24.363 156.879 24.737C157.078 25.111 157.355 25.298 157.71 25.298C158.419 25.298 159.029 24.968 159.538 24.308C160.07 23.626 160.436 22.691 160.635 21.503L162.397 11.834C161.932 11.438 161.422 11.24 160.868 11.24C160.336 11.24 159.904 11.328 159.572 11.504C159.261 11.68 158.973 11.966 158.707 12.362Z" fill="#1F2937"/>
<path d="M14.4646 13.264C14.797 12.604 14.9633 11.966 14.9633 11.35C14.9633 10.734 14.93 10.261 14.8635 9.931C14.797 9.579 14.6862 9.271 14.5311 9.007C14.1986 8.435 13.6999 8.149 13.035 8.149C12.215 8.149 11.4725 8.446 10.8075 9.04C10.0983 9.656 9.74367 10.448 9.74367 11.416C9.74367 12.032 9.95423 12.582 10.3753 13.066C10.8186 13.528 11.3727 13.979 12.0376 14.419C12.7026 14.859 13.4118 15.299 14.1654 15.739C14.919 16.179 15.6282 16.663 16.2931 17.191C17.8224 18.401 18.5871 19.82 18.5871 21.448C18.5871 22.548 18.2879 23.571 17.6894 24.517C17.1132 25.441 16.3374 26.244 15.3622 26.926C13.2345 28.422 10.7632 29.17 7.94839 29.17C5.66551 29.17 3.93672 28.807 2.76203 28.081C1.58734 27.333 1 26.398 1 25.276C1 23.274 1.78682 22.02 3.36046 21.514C3.80374 21.36 4.35784 21.283 5.02275 21.283C5.70984 21.283 6.44125 21.426 7.21698 21.712C6.86236 22.614 6.68505 23.472 6.68505 24.286C6.68505 26.046 7.31672 26.926 8.58007 26.926C9.40013 26.926 10.1426 26.629 10.8075 26.035C11.4946 25.441 11.8382 24.814 11.8382 24.154C11.8382 23.472 11.6165 22.889 11.1732 22.405C10.7521 21.921 10.2202 21.492 9.57744 21.118C8.93469 20.722 8.23653 20.337 7.48295 19.963C6.75154 19.589 6.06446 19.138 5.4217 18.61C3.91456 17.4 3.16098 15.827 3.16098 13.891C3.16098 12.637 3.47128 11.526 4.09187 10.558C4.71246 9.568 5.52144 8.743 6.51882 8.083C8.51357 6.741 10.73 6.07 13.168 6.07C15.6282 6.07 17.4456 6.433 18.6203 7.159C19.8172 7.885 20.4156 8.864 20.4156 10.096C20.4156 11.174 19.9945 12.054 19.1523 12.736C18.4209 13.308 17.6119 13.594 16.7253 13.594C15.8388 13.594 15.0852 13.484 14.4646 13.264ZM37.8312 24.847C37.8312 25.815 38.3299 26.442 39.3273 26.728C39.0835 27.542 38.485 28.169 37.532 28.609C36.7341 28.983 35.8919 29.17 35.0053 29.17C34.1409 29.17 33.476 29.049 33.0105 28.807C32.5673 28.587 32.2237 28.29 31.9799 27.916C31.581 27.344 31.3815 26.519 31.3815 25.441C31.3815 24.803 31.5588 23.604 31.9134 21.844L32.3789 19.336C32.7557 17.422 32.944 16.113 32.944 15.409C32.944 14.177 32.6005 13.561 31.9134 13.561C31.049 13.561 30.3398 14.188 29.7857 15.442C29.564 15.926 29.3757 16.531 29.2205 17.257L26.9599 28.51L20.2774 29.17L24.9651 5.41L31.6475 4.75L31.3815 6.07C30.7609 9.458 30.1846 11.724 29.6527 12.868C30.8939 11.636 32.6559 11.02 34.9388 11.02C37.3547 11.02 38.7842 11.812 39.2275 13.396C39.3827 13.902 39.4602 14.375 39.4602 14.815C39.4602 15.255 39.4381 15.651 39.3938 16.003C39.3716 16.333 39.3051 16.806 39.1943 17.422L38.7621 19.798L37.9974 23.527C37.8866 24.033 37.8312 24.473 37.8312 24.847ZM55.4817 22.933C56.0358 23.307 56.3129 23.912 56.3129 24.748C56.3129 25.562 56.1023 26.233 55.6812 26.761C55.2601 27.289 54.706 27.729 54.0189 28.081C52.6004 28.807 51.1265 29.17 49.5972 29.17C48.0679 29.17 46.8489 29.005 45.9402 28.675C45.0536 28.345 44.3111 27.872 43.7127 27.256C42.538 26.09 41.9506 24.44 41.9506 22.306C41.9506 18.984 42.8594 16.311 44.6768 14.287C46.6272 12.109 49.298 11.02 52.6891 11.02C54.7946 11.02 56.3683 11.46 57.41 12.34C58.1857 13 58.5736 13.869 58.5736 14.947C58.5736 18.819 55.2047 20.755 48.4668 20.755C48.3782 21.327 48.3339 21.855 48.3339 22.339C48.3339 23.351 48.5555 24.055 48.9988 24.451C49.4642 24.825 50.118 25.012 50.9603 25.012C51.8025 25.012 52.6669 24.825 53.5535 24.451C54.4622 24.055 55.1049 23.549 55.4817 22.933ZM48.6996 19.336C50.2732 19.336 51.5144 18.852 52.4231 17.884C53.3318 16.96 53.7862 15.761 53.7862 14.287C53.7862 13.781 53.6864 13.396 53.487 13.132C53.3097 12.846 53.0326 12.703 52.6558 12.703C52.279 12.703 51.9244 12.78 51.5919 12.934C51.2817 13.066 50.9603 13.374 50.6278 13.858C49.8078 14.958 49.165 16.784 48.6996 19.336ZM67.6572 26.695C66.9701 28.345 65.5295 29.17 63.3352 29.17C62.227 29.17 61.3183 28.785 60.6091 28.015C60.0328 27.377 59.7447 26.695 59.7447 25.969C59.7447 24.319 60.1325 21.69 60.9083 18.082L63.3352 5.41L70.0842 4.75L66.8593 21.448C66.4825 23.076 66.2941 24.176 66.2941 24.748C66.2941 26.002 66.7485 26.651 67.6572 26.695ZM78.4361 26.695C77.749 28.345 76.3083 29.17 74.1141 29.17C73.0059 29.17 72.0972 28.785 71.3879 28.015C70.8117 27.377 70.5236 26.695 70.5236 25.969C70.5236 24.319 70.9114 21.69 71.6872 18.082L74.1141 5.41L80.863 4.75L77.6382 21.448C77.2614 23.076 77.073 24.176 77.073 24.748C77.073 26.002 77.5274 26.651 78.4361 26.695Z" fill="#1F2937"/>
</svg>
