<svg width="1036" height="240" viewBox="0 0 1036 240" fill="none" xmlns="http://www.w3.org/2000/svg">
<rect width="240" height="240" rx="67" fill="#374151"/>
<path fill-rule="evenodd" clip-rule="evenodd" d="M56.9041 145.101C54.4043 142.604 53 139.217 53 135.686C53 132.155 54.4043 128.769 56.9041 126.271L100.814 82.4196L56.9041 38.5679C54.4752 36.0563 53.1311 32.6925 53.1615 29.2009C53.1919 25.7094 54.5942 22.3694 57.0665 19.9004C59.5388 17.4313 62.8832 16.0308 66.3794 16.0005C69.8756 15.9702 73.2439 17.3124 75.7588 19.7381L129.096 73.0047C131.596 75.502 133 78.8885 133 82.4196C133 85.9507 131.596 89.3372 129.096 91.8345L75.7588 145.101C73.2582 147.598 69.8672 149 66.3314 149C62.7957 149 59.4046 147.598 56.9041 145.101Z" fill="white"/>
<path fill-rule="evenodd" clip-rule="evenodd" d="M147.234 91.4524C148.577 92.1257 149.672 93.2179 150.36 94.5701C151.047 95.9223 151.29 97.4641 151.054 98.9712L145.518 134.381L173.387 138.739C174.661 138.937 175.856 139.487 176.841 140.329C177.826 141.171 178.563 142.272 178.973 143.513C179.382 144.754 179.448 146.087 179.164 147.367C178.879 148.647 178.255 149.824 177.358 150.772L117.515 213.967C116.473 215.07 115.113 215.809 113.634 216.075C112.154 216.342 110.631 216.122 109.288 215.448C107.944 214.774 106.849 213.682 106.162 212.329C105.476 210.976 105.233 209.434 105.47 207.926L111.006 172.516L83.1369 168.159C81.8624 167.96 80.6677 167.41 79.6828 166.568C78.698 165.726 77.9606 164.625 77.5511 163.384C77.1416 162.143 77.0756 160.811 77.3602 159.531C77.6449 158.251 78.2693 157.073 79.1655 156.126L139.009 92.9307C140.051 91.8298 141.411 91.0936 142.89 90.829C144.369 90.5645 145.89 90.7853 147.233 91.4595L147.234 91.4524Z" fill="white"/>
<path d="M314.176 142.504C319.784 142.504 323.753 141.554 326.081 139.652C328.515 137.644 329.732 135.267 329.732 132.52C329.732 129.984 328.779 127.977 326.875 126.498C325.076 124.913 322.324 123.539 318.62 122.377L310.525 119.842C306.08 118.468 302.059 116.989 298.461 115.404C294.863 113.714 291.794 111.759 289.254 109.54C286.714 107.216 284.704 104.522 283.222 101.458C281.847 98.2879 281.159 94.4844 281.159 90.0469C281.159 81.1719 284.492 74.1458 291.159 68.9687C297.932 63.7917 307.297 61.2031 319.255 61.2031C323.806 61.2031 327.986 61.5201 331.795 62.154C335.711 62.7879 339.044 63.7917 341.796 65.1652C344.547 66.433 346.717 68.0179 348.304 69.9196C349.891 71.8214 350.685 74.0402 350.685 76.5759C350.685 79.006 350.05 81.1719 348.78 83.0737C347.616 84.8698 346.24 86.4018 344.653 87.6696C342.219 85.9792 338.991 84.5528 334.97 83.3906C330.949 82.2284 326.557 81.6473 321.795 81.6473C316.716 81.6473 312.959 82.4397 310.525 84.0246C308.091 85.6094 306.874 87.6168 306.874 90.0469C306.874 92.16 307.668 93.7976 309.255 94.9598C310.842 96.0164 313.329 97.1257 316.716 98.2879L325.287 101.141C330.261 102.831 334.6 104.68 338.304 106.687C342.113 108.589 345.288 110.808 347.828 113.344C350.368 115.774 352.272 118.626 353.542 121.902C354.812 125.071 355.447 128.717 355.447 132.837C355.447 137.275 354.548 141.342 352.749 145.04C351.055 148.632 348.463 151.749 344.971 154.391C341.584 157.032 337.351 159.092 332.272 160.571C327.298 162.051 321.531 162.79 314.969 162.79C310.102 162.79 305.604 162.368 301.477 161.522C297.35 160.783 293.752 159.673 290.683 158.194C287.72 156.715 285.339 154.919 283.54 152.806C281.847 150.587 281 148.104 281 145.357C281 142.504 281.794 140.127 283.381 138.225C285.074 136.324 286.926 134.792 288.937 133.629C291.794 135.954 295.339 138.014 299.572 139.81C303.911 141.606 308.779 142.504 314.176 142.504ZM396.861 159.937C395.697 160.254 394.057 160.519 391.94 160.73C389.824 161.047 387.601 161.205 385.273 161.205C380.3 161.205 376.807 160.36 374.797 158.67C372.892 156.979 371.939 153.915 371.939 149.478V63.7388C373.103 63.5275 374.744 63.2634 376.86 62.9464C379.083 62.6295 381.252 62.471 383.368 62.471C388.13 62.471 391.57 63.2634 393.686 64.8482C395.803 66.433 396.861 69.5499 396.861 74.1987V102.092H430.989V63.7388C432.153 63.5275 433.794 63.2634 435.91 62.9464C438.132 62.6295 440.355 62.471 442.577 62.471C447.233 62.471 450.62 63.3162 452.736 65.0067C454.853 66.6972 455.911 69.8668 455.911 74.5156V159.937C454.747 160.254 453.107 160.519 450.99 160.73C448.874 161.047 446.651 161.205 444.323 161.205C439.349 161.205 435.857 160.36 433.847 158.67C431.942 156.979 430.989 153.915 430.989 149.478V121.743H396.861V159.937ZM496.538 132.045C498.019 136.482 500.612 139.652 504.316 141.554C508.02 143.35 512.306 144.248 517.174 144.248C521.618 144.248 525.798 143.667 529.714 142.504C533.629 141.237 536.804 139.863 539.238 138.384C540.825 139.44 542.148 140.814 543.206 142.504C544.265 144.195 544.794 146.044 544.794 148.051C544.794 150.481 544.053 152.594 542.571 154.391C541.09 156.187 539.026 157.719 536.381 158.987C533.841 160.149 530.772 160.994 527.174 161.522C523.682 162.156 519.819 162.473 515.586 162.473C509.343 162.473 503.575 161.628 498.284 159.937C492.993 158.141 488.442 155.553 484.633 152.172C480.823 148.685 477.807 144.353 475.585 139.176C473.468 133.999 472.41 127.924 472.41 120.951C472.41 114.189 473.468 108.325 475.585 103.359C477.807 98.3936 480.717 94.2731 484.315 90.9978C488.019 87.7225 492.199 85.3452 496.855 83.8661C501.618 82.2812 506.485 81.4888 511.459 81.4888C516.856 81.4888 521.777 82.3341 526.222 84.0246C530.772 85.6094 534.635 87.8809 537.809 90.8393C541.09 93.7976 543.63 97.337 545.429 101.458C547.228 105.578 548.127 110.068 548.127 114.929C548.127 118.31 547.228 120.845 545.429 122.536C543.63 124.226 541.09 125.336 537.809 125.864L496.538 132.045ZM511.618 99.3973C507.067 99.3973 503.258 100.824 500.189 103.676C497.226 106.423 495.48 110.438 494.951 115.721L525.269 110.808C525.057 108.061 523.841 105.472 521.618 103.042C519.396 100.612 516.062 99.3973 511.618 99.3973ZM576.378 161.205C571.616 161.205 568.177 160.466 566.06 158.987C564.05 157.402 563.044 154.391 563.044 149.953V56.9241C564.102 56.6071 565.584 56.2902 567.489 55.9732C569.5 55.6563 571.669 55.4978 573.997 55.4978C578.653 55.4978 582.04 56.2902 584.156 57.875C586.273 59.4598 587.331 62.471 587.331 66.9085V159.937C586.167 160.254 584.632 160.519 582.728 160.73C580.823 161.047 578.706 161.205 576.378 161.205ZM620.557 161.205C615.795 161.205 612.356 160.466 610.239 158.987C608.228 157.402 607.223 154.391 607.223 149.953V56.9241C608.281 56.6071 609.763 56.2902 611.668 55.9732C613.678 55.6563 615.848 55.4978 618.176 55.4978C622.832 55.4978 626.218 56.2902 628.335 57.875C630.451 59.4598 631.51 62.471 631.51 66.9085V159.937C630.346 160.254 628.811 160.519 626.906 160.73C625.001 161.047 622.885 161.205 620.557 161.205ZM769.378 157.085C767.897 158.353 765.886 159.356 763.346 160.096C760.807 160.941 757.791 161.364 754.298 161.364C750.7 161.364 747.314 160.783 744.139 159.621C740.965 158.458 738.319 155.817 736.202 151.696L717.789 116.196C715.99 112.815 714.297 109.435 712.71 106.054C711.228 102.673 709.747 99.1332 708.265 95.4353L707.154 95.7522C707.683 102.092 708 108.167 708.106 113.978C708.212 119.683 708.265 125.23 708.265 130.618V160.096C707.207 160.307 705.619 160.519 703.503 160.73C701.492 161.047 699.376 161.205 697.154 161.205C692.391 161.205 689.058 160.413 687.153 158.828C685.248 157.138 684.296 154.179 684.296 149.953V68.3348C685.566 66.5387 687.576 65.1652 690.328 64.2143C693.185 63.1577 696.201 62.6295 699.376 62.6295C703.08 62.6295 706.466 63.2106 709.535 64.3728C712.71 65.535 715.355 68.1235 717.472 72.1384L736.044 107.797C737.843 111.178 739.483 114.559 740.965 117.94C742.552 121.321 744.086 124.86 745.568 128.558L746.203 128.4C745.674 121.321 745.356 114.612 745.25 108.272C745.25 101.933 745.25 95.8579 745.25 90.0469V63.7388C746.309 63.5275 747.843 63.2634 749.854 62.9464C751.97 62.6295 754.193 62.471 756.521 62.471C761.283 62.471 764.616 63.3162 766.521 65.0067C768.426 66.5915 769.378 69.497 769.378 73.7232V157.085ZM814.11 159.937C813.052 160.254 811.57 160.519 809.665 160.73C807.761 161.047 805.644 161.205 803.316 161.205C798.554 161.205 795.115 160.466 792.998 158.987C790.987 157.402 789.982 154.391 789.982 149.953V84.817C791.04 84.5 792.522 84.183 794.427 83.8661C796.332 83.5491 798.448 83.3906 800.776 83.3906C805.538 83.3906 808.925 84.183 810.935 85.7679C813.052 87.3527 814.11 90.3638 814.11 94.8013V159.937ZM788.554 61.9955C788.554 58.4033 789.771 55.3393 792.204 52.8036C794.744 50.2679 798.025 49 802.046 49C806.067 49 809.295 50.2679 811.729 52.8036C814.269 55.3393 815.539 58.4033 815.539 61.9955C815.539 65.6935 814.269 68.8103 811.729 71.346C809.295 73.8817 806.067 75.1496 802.046 75.1496C798.025 75.1496 794.744 73.8817 792.204 71.346C789.771 68.8103 788.554 65.6935 788.554 61.9955ZM882.115 111.442C882.115 107.744 881.004 104.997 878.782 103.201C876.559 101.405 873.596 100.507 869.892 100.507C867.353 100.507 865.024 100.824 862.908 101.458C860.792 102.092 858.834 102.884 857.035 103.835V159.937C855.976 160.254 854.495 160.519 852.59 160.73C850.685 161.047 848.569 161.205 846.241 161.205C841.479 161.205 838.039 160.466 835.923 158.987C833.806 157.402 832.748 154.391 832.748 149.953V100.982C832.748 98.2351 833.33 96.0164 834.494 94.3259C835.658 92.6354 837.299 91.0506 839.415 89.5714C842.801 87.1414 847.14 85.1868 852.431 83.7076C857.828 82.2284 863.755 81.4888 870.21 81.4888C881.745 81.4888 890.634 84.0246 896.877 89.096C903.227 94.1674 906.402 101.405 906.402 110.808V159.937C905.237 160.254 903.703 160.519 901.798 160.73C899.893 161.047 897.777 161.205 895.449 161.205C890.687 161.205 887.247 160.466 885.131 158.987C883.12 157.402 882.115 154.391 882.115 149.953V111.442ZM950.078 162.632C950.078 167.703 949.443 171.982 948.173 175.469C947.009 179.061 945.421 182.019 943.411 184.344C941.4 186.668 939.072 188.359 936.426 189.415C933.887 190.472 931.188 191 928.331 191C924.098 191 920.817 189.679 918.489 187.038C916.161 184.502 914.891 181.333 914.68 177.529C918.489 175.733 921.294 173.514 923.093 170.873C924.892 168.337 925.791 164.745 925.791 160.096V84.817C926.955 84.5 928.49 84.183 930.395 83.8661C932.299 83.5491 934.416 83.3906 936.744 83.3906C941.506 83.3906 944.892 84.183 946.903 85.7679C949.019 87.3527 950.078 90.3638 950.078 94.8013V162.632ZM923.728 61.9955C923.728 58.4033 924.997 55.3393 927.537 52.8036C930.077 50.2679 933.358 49 937.379 49C941.4 49 944.628 50.2679 947.062 52.8036C949.602 55.3393 950.871 58.4033 950.871 61.9955C950.871 65.6935 949.602 68.8103 947.062 71.346C944.628 73.8817 941.4 75.1496 937.379 75.1496C933.358 75.1496 930.077 73.8817 927.537 71.346C924.997 68.8103 923.728 65.6935 923.728 61.9955ZM1000.44 144.723C1002.77 144.723 1005.05 144.512 1007.27 144.089C1009.6 143.561 1011.34 142.927 1012.51 142.187V127.607L999.491 128.717C996.104 129.033 993.353 129.826 991.237 131.094C989.226 132.256 988.221 134.052 988.221 136.482C988.221 139.018 989.173 141.025 991.078 142.504C992.983 143.984 996.104 144.723 1000.44 144.723ZM999.491 81.4888C1004.99 81.4888 1009.97 82.0699 1014.41 83.2321C1018.96 84.2887 1022.82 85.9792 1026 88.3036C1029.17 90.628 1031.61 93.5863 1033.3 97.1786C1035.1 100.771 1036 104.997 1036 109.857V145.674C1036 148.421 1035.26 150.64 1033.78 152.33C1032.4 153.915 1030.71 155.289 1028.7 156.451C1025.42 158.458 1021.4 159.99 1016.63 161.047C1011.87 162.103 1006.48 162.632 1000.44 162.632C989.543 162.632 980.866 160.571 974.411 156.451C967.955 152.225 964.728 145.833 964.728 137.275C964.728 129.984 966.897 124.438 971.236 120.634C975.575 116.83 982.242 114.453 991.237 113.502L1012.35 111.283V109.54C1012.35 106.159 1010.97 103.676 1008.22 102.092C1005.47 100.507 1001.5 99.7143 996.316 99.7143C992.295 99.7143 988.326 100.19 984.411 101.141C980.601 102.092 977.162 103.201 974.093 104.469C972.823 103.624 971.712 102.356 970.76 100.665C969.913 98.869 969.49 96.9673 969.49 94.9598C969.49 90.311 971.924 86.9829 976.792 84.9754C979.86 83.8132 983.406 82.968 987.427 82.4397C991.554 81.8058 995.575 81.4888 999.491 81.4888Z" fill="#374151"/>
</svg>
