<svg width="224" height="80" viewBox="0 0 224 80" fill="none" xmlns="http://www.w3.org/2000/svg">
<path d="M110.447 47.75L114.437 25.97H121.585L126.771 40.952L129.53 25.97L133.221 26.003L129.165 47.75H121.551L116.764 33.329L114.104 47.75H110.447ZM142.035 45.935C141.348 47.585 139.907 48.41 137.713 48.41C136.583 48.41 135.663 48.025 134.954 47.255C134.355 46.573 134.056 45.891 134.056 45.209C134.056 43.427 134.466 40.798 135.286 37.322L136.516 30.92L143.265 30.26L141.237 40.688C140.86 42.316 140.672 43.416 140.672 43.988C140.672 45.242 141.126 45.891 142.035 45.935ZM137.115 26.333C137.115 25.475 137.469 24.815 138.178 24.353C138.91 23.891 139.796 23.66 140.838 23.66C141.88 23.66 142.711 23.891 143.332 24.353C143.974 24.815 144.296 25.475 144.296 26.333C144.296 27.191 143.941 27.84 143.232 28.28C142.545 28.72 141.68 28.94 140.639 28.94C139.597 28.94 138.744 28.72 138.079 28.28C137.436 27.84 137.115 27.191 137.115 26.333ZM158.93 48.41C156.248 48.41 154.907 47.376 154.907 45.308C154.93 44.736 155.029 43.966 155.207 42.998L155.805 39.962C156.404 37.102 156.703 35.353 156.703 34.715C156.703 33.439 156.326 32.801 155.572 32.801C154.309 32.801 153.345 34.44 152.68 37.718L150.719 47.75L144.036 48.41L147.494 30.887L152.946 30.26L152.414 33.494C153.456 31.338 155.572 30.26 158.764 30.26C160.315 30.26 161.413 30.59 162.055 31.25C162.72 31.888 163.053 32.933 163.053 34.385C163.053 35.749 162.698 38.026 161.989 41.216C161.656 42.646 161.49 43.636 161.49 44.186C161.49 44.714 161.634 45.132 161.922 45.44C162.233 45.748 162.609 45.924 163.053 45.968C162.831 46.716 162.332 47.31 161.557 47.75C160.803 48.19 159.928 48.41 158.93 48.41ZM161.09 51.677C162.242 51.589 163.24 50.83 164.082 49.4C164.725 48.3 165.257 46.738 165.678 44.714L168.371 30.92L175.053 30.26L172.227 44.714C171.496 48.388 170.565 50.83 169.435 52.04C168.836 52.7 168.149 53.14 167.373 53.36C166.598 53.58 165.766 53.69 164.88 53.69C163.018 53.69 161.755 53.019 161.09 51.677ZM168.903 26.333C168.903 25.475 169.257 24.815 169.966 24.353C170.698 23.891 171.584 23.66 172.626 23.66C173.668 23.66 174.499 23.891 175.12 24.353C175.762 24.815 176.084 25.475 176.084 26.333C176.084 27.191 175.729 27.84 175.02 28.28C174.333 28.72 173.468 28.94 172.427 28.94C171.385 28.94 170.532 28.72 169.867 28.28C169.224 27.84 168.903 27.191 168.903 26.333ZM177.692 46.76C177.183 46.188 176.806 45.451 176.562 44.549C176.34 43.647 176.229 42.459 176.229 40.985C176.229 39.511 176.484 38.103 176.994 36.761C177.504 35.419 178.224 34.264 179.155 33.296C181.061 31.272 183.588 30.26 186.735 30.26C187.866 30.26 188.841 30.447 189.661 30.821L195.346 30.26L192.886 43.13C192.819 43.394 192.786 43.768 192.786 44.252C192.786 44.736 192.93 45.132 193.218 45.44C193.528 45.748 193.905 45.924 194.348 45.968C194.127 46.716 193.606 47.31 192.786 47.75C191.988 48.19 191.135 48.41 190.226 48.41C189.317 48.41 188.553 48.234 187.932 47.882C187.334 47.552 186.946 47.101 186.768 46.529C186.414 47.079 185.86 47.53 185.106 47.882C184.353 48.234 183.466 48.41 182.446 48.41C181.449 48.41 180.54 48.278 179.72 48.014C178.9 47.75 178.224 47.332 177.692 46.76ZM184.707 33.362C184.463 33.758 184.231 34.297 184.009 34.979C183.787 35.639 183.488 36.871 183.111 38.675C182.757 40.457 182.579 41.986 182.579 43.262C182.579 44.538 182.679 45.363 182.879 45.737C183.078 46.111 183.355 46.298 183.71 46.298C184.419 46.298 185.029 45.968 185.538 45.308C186.07 44.626 186.436 43.691 186.635 42.503L188.397 32.834C187.932 32.438 187.422 32.24 186.868 32.24C186.336 32.24 185.904 32.328 185.572 32.504C185.261 32.68 184.973 32.966 184.707 33.362Z" fill="#1F2937"/>
<path d="M40.4646 34.264C40.797 33.604 40.9633 32.966 40.9633 32.35C40.9633 31.734 40.93 31.261 40.8635 30.931C40.797 30.579 40.6862 30.271 40.5311 30.007C40.1986 29.435 39.6999 29.149 39.035 29.149C38.215 29.149 37.4725 29.446 36.8075 30.04C36.0983 30.656 35.7437 31.448 35.7437 32.416C35.7437 33.032 35.9542 33.582 36.3753 34.066C36.8186 34.528 37.3727 34.979 38.0376 35.419C38.7026 35.859 39.4118 36.299 40.1654 36.739C40.919 37.179 41.6282 37.663 42.2931 38.191C43.8224 39.401 44.5871 40.82 44.5871 42.448C44.5871 43.548 44.2879 44.571 43.6894 45.517C43.1132 46.441 42.3374 47.244 41.3622 47.926C39.2345 49.422 36.7632 50.17 33.9484 50.17C31.6655 50.17 29.9367 49.807 28.762 49.081C27.5873 48.333 27 47.398 27 46.276C27 44.274 27.7868 43.02 29.3605 42.514C29.8037 42.36 30.3578 42.283 31.0228 42.283C31.7098 42.283 32.4412 42.426 33.217 42.712C32.8624 43.614 32.685 44.472 32.685 45.286C32.685 47.046 33.3167 47.926 34.5801 47.926C35.4001 47.926 36.1426 47.629 36.8075 47.035C37.4946 46.441 37.8382 45.814 37.8382 45.154C37.8382 44.472 37.6165 43.889 37.1732 43.405C36.7521 42.921 36.2202 42.492 35.5774 42.118C34.9347 41.722 34.2365 41.337 33.483 40.963C32.7515 40.589 32.0645 40.138 31.4217 39.61C29.9146 38.4 29.161 36.827 29.161 34.891C29.161 33.637 29.4713 32.526 30.0919 31.558C30.7125 30.568 31.5214 29.743 32.5188 29.083C34.5136 27.741 36.73 27.07 39.168 27.07C41.6282 27.07 43.4456 27.433 44.6203 28.159C45.8172 28.885 46.4156 29.864 46.4156 31.096C46.4156 32.174 45.9945 33.054 45.1523 33.736C44.4209 34.308 43.6119 34.594 42.7253 34.594C41.8388 34.594 41.0852 34.484 40.4646 34.264ZM63.8312 45.847C63.8312 46.815 64.3299 47.442 65.3273 47.728C65.0835 48.542 64.485 49.169 63.532 49.609C62.7341 49.983 61.8919 50.17 61.0053 50.17C60.1409 50.17 59.476 50.049 59.0105 49.807C58.5673 49.587 58.2237 49.29 57.9799 48.916C57.581 48.344 57.3815 47.519 57.3815 46.441C57.3815 45.803 57.5588 44.604 57.9134 42.844L58.3789 40.336C58.7557 38.422 58.944 37.113 58.944 36.409C58.944 35.177 58.6005 34.561 57.9134 34.561C57.049 34.561 56.3398 35.188 55.7857 36.442C55.564 36.926 55.3757 37.531 55.2205 38.257L52.9599 49.51L46.2774 50.17L50.9651 26.41L57.6475 25.75L57.3815 27.07C56.7609 30.458 56.1846 32.724 55.6527 33.868C56.8939 32.636 58.6559 32.02 60.9388 32.02C63.3547 32.02 64.7842 32.812 65.2275 34.396C65.3827 34.902 65.4602 35.375 65.4602 35.815C65.4602 36.255 65.4381 36.651 65.3938 37.003C65.3716 37.333 65.3051 37.806 65.1943 38.422L64.7621 40.798L63.9974 44.527C63.8866 45.033 63.8312 45.473 63.8312 45.847ZM81.4817 43.933C82.0358 44.307 82.3129 44.912 82.3129 45.748C82.3129 46.562 82.1023 47.233 81.6812 47.761C81.2601 48.289 80.706 48.729 80.0189 49.081C78.6004 49.807 77.1265 50.17 75.5972 50.17C74.0679 50.17 72.8489 50.005 71.9402 49.675C71.0536 49.345 70.3111 48.872 69.7127 48.256C68.538 47.09 67.9506 45.44 67.9506 43.306C67.9506 39.984 68.8594 37.311 70.6768 35.287C72.6272 33.109 75.298 32.02 78.6891 32.02C80.7946 32.02 82.3683 32.46 83.41 33.34C84.1857 34 84.5736 34.869 84.5736 35.947C84.5736 39.819 81.2047 41.755 74.4668 41.755C74.3782 42.327 74.3339 42.855 74.3339 43.339C74.3339 44.351 74.5555 45.055 74.9988 45.451C75.4642 45.825 76.118 46.012 76.9603 46.012C77.8025 46.012 78.6669 45.825 79.5535 45.451C80.4622 45.055 81.1049 44.549 81.4817 43.933ZM74.6996 40.336C76.2732 40.336 77.5144 39.852 78.4231 38.884C79.3318 37.96 79.7862 36.761 79.7862 35.287C79.7862 34.781 79.6864 34.396 79.487 34.132C79.3097 33.846 79.0326 33.703 78.6558 33.703C78.279 33.703 77.9244 33.78 77.5919 33.934C77.2817 34.066 76.9603 34.374 76.6278 34.858C75.8078 35.958 75.165 37.784 74.6996 40.336ZM93.6572 47.695C92.9701 49.345 91.5295 50.17 89.3352 50.17C88.227 50.17 87.3183 49.785 86.6091 49.015C86.0328 48.377 85.7447 47.695 85.7447 46.969C85.7447 45.319 86.1325 42.69 86.9083 39.082L89.3352 26.41L96.0842 25.75L92.8593 42.448C92.4825 44.076 92.2941 45.176 92.2941 45.748C92.2941 47.002 92.7485 47.651 93.6572 47.695ZM104.436 47.695C103.749 49.345 102.308 50.17 100.114 50.17C99.0059 50.17 98.0972 49.785 97.3879 49.015C96.8117 48.377 96.5236 47.695 96.5236 46.969C96.5236 45.319 96.9114 42.69 97.6872 39.082L100.114 26.41L106.863 25.75L103.638 42.448C103.261 44.076 103.073 45.176 103.073 45.748C103.073 47.002 103.527 47.651 104.436 47.695Z" fill="#1F2937"/>
</svg>
